Coordinates
version=1
nRows=17
nColumns=24
inDegrees=yes

Units are S.I. units (second, meters, Newtons, ...)
Angles are in degrees.

endheader
time	pelvis_tilt	pelvis_list	pelvis_rotation	pelvis_tx	pelvis_ty	pelvis_tz	hip_flexion_r	hip_adduction_r	hip_rotation_r	knee_angle_r	ankle_angle_r	subtalar_angle_r	mtp_angle_r	hip_flexion_l	hip_adduction_l	hip_rotation_l	knee_angle_l	ankle_angle_l	subtalar_angle_l	mtp_angle_l	lumbar_extension	lumbar_bending	lumbar_rotation
      6.74000000	     -0.96553667	      8.17425726	      7.79218671	     -0.74819267	      0.86781047	      0.18203625	     21.99567310	     -7.95783610	     -7.61504884	      0.15120185	      9.30565746	      7.46902398	      0.00000000	    -15.09156621	     10.47048261	     21.42882646	    -10.16213408	     17.44681457	     -6.62523188	      0.00000000	    -21.07979063	     -6.27752606	    -20.79727782
      6.75000000	     -0.75257383	      8.10097503	      7.81482630	     -0.73473387	      0.86723930	      0.18237335	     21.89941004	     -7.82004969	     -7.03262191	     -0.94998504	      9.05156189	      6.53744869	      0.00000000	    -15.48465854	     10.34067026	     20.68314734	    -11.56349230	     17.21950373	     -5.37711119	      0.00000000	    -21.09373655	     -6.02619872	    -20.59358206
      6.76000000	     -0.53141256	      8.03672695	      7.81066533	     -0.72096839	      0.86687426	      0.18277162	     21.78473349	     -7.66600544	     -6.12014054	     -2.34638636	      8.55394399	      5.16659258	      0.00000000	    -15.73324436	     10.23618074	     19.61810136	    -13.23376629	     16.73015896	     -3.94803175	      0.00000000	    -21.05086102	     -5.80294898	    -20.35229771
      6.77000000	     -0.26387057	      7.97481556	      7.71235951	     -0.70706420	      0.86677055	      0.18336090	     21.66414661	     -7.45167477	     -4.96072547	     -4.00627202	      7.76582435	      3.60607161	      0.00000000	    -15.84115350	     10.14529100	     18.19304620	    -15.18988723	     15.99264465	     -2.29482941	      0.00000000	    -21.05021202	     -5.59651024	    -20.11096277
      6.78000000	     -0.03385492	      7.84879388	      7.61069837	     -0.69279311	      0.86688144	      0.18409232	     21.52063720	     -7.12192781	     -3.60989099	     -5.70543554	      6.66219040	      1.70878800	      0.00000000	    -15.69318146	      9.96772448	     16.36583271	    -17.46689792	     14.89854102	     -0.52915103	      0.00000000	    -20.90321824	     -5.35281063	    -19.77711023
      6.79000000	      0.22292763	      7.71337014	      7.45031002	     -0.67852250	      0.86726773	      0.18504433	     21.37494241	     -6.71956537	     -2.21073931	     -7.50393218	      5.42547168	     -0.11271229	      0.00000000	    -15.33129690	      9.75512049	     14.33406111	    -20.07340393	     13.44027140	      1.23699545	      0.00000000	    -20.80356254	     -5.12272943	    -19.45642825
      6.80000000	      0.47191676	      7.55646627	      7.27878772	     -0.66430320	      0.86786047	      0.18612381	     21.22617033	     -6.25196883	     -0.73504979	     -9.31804904	      4.19636508	     -1.89011791	      0.00000000	    -14.69450755	      9.48944443	     12.22764016	    -23.04295414	     11.57543559	      2.78780854	      0.00000000	    -20.70797096	     -4.87730303	    -19.17453579
      6.81000000	      0.75969593	      7.35313191	      7.13237157	     -0.65015861	      0.86872501	      0.18735494	     21.02829725	     -5.71526494	      0.33527189	    -11.13424884	      3.21791314	     -3.24833268	      0.00000000	    -13.82700399	      9.10032207	     10.12794065	    -26.36639532	      9.34213702	      4.22461159	      0.00000000	    -20.67323643	     -4.61835475	    -18.77951327
      6.82000000	      1.00085352	      7.11954313	      7.01435783	     -0.63626475	      0.86961665	      0.18862119	     20.83965403	     -5.13571091	      1.45808181	    -12.89277137	      2.52990625	     -4.50660519	      0.00000000	    -12.63985946	      8.65346732	      8.20056513	    -30.03160085	      6.74196827	      5.16702517	      0.00000000	    -20.63266540	     -4.32685309	    -18.48249995
      6.83000000	      1.23271850	      6.78332846	      6.95011505	     -0.62259774	      0.87051317	      0.18984697	     20.61467123	     -4.46743799	      2.27254701	    -14.57617637	      2.29003998	     -5.40886362	      0.00000000	    -11.18649897	      8.06142711	      6.47699326	    -34.00004068	      3.89715352	      5.66920415	      0.00000000	    -20.60850043	     -3.91211460	    -18.17189844
      6.84000000	      1.40086549	      6.38248124	      6.97256758	     -0.60928483	      0.87130512	      0.19091996	     20.38384730	     -3.77209000	      2.85764039	    -16.12877056	      2.43619043	     -6.12677228	      0.00000000	     -9.44096196	      7.40771575	      5.09162851	    -38.19867298	      0.78052280	      5.52321411	      0.00000000	    -20.56647134	     -3.41619183	    -17.88528766
      6.85000000	      1.53040908	      5.88825359	      7.07333938	     -0.59635887	      0.87197147	      0.19187017	     20.11389175	     -3.02656877	      3.15059337	    -17.51863948	      2.96615224	     -6.56914106	      0.00000000	     -7.45540689	      6.66060917	      3.99222708	    -42.54832504	     -2.46683906	      4.87444182	      0.00000000	    -20.53387415	     -2.80169067	    -17.63010698
      6.86000000	      1.66094913	      5.30101145	      7.25494083	     -0.58383865	      0.87252660	      0.19261392	     19.73666036	     -2.23415126	      3.17805365	    -18.68094392	      3.79609572	     -6.87507150	      0.00000000	     -5.31593677	      5.84159182	      3.16721502	    -46.94012533	     -5.74937767	      3.64060609	      0.00000000	    -20.56725091	     -2.05807270	    -17.37020890
      6.87000000	      1.79144237	      4.62092689	      7.49067780	     -0.57166444	      0.87303482	      0.19317695	     19.23294514	     -1.38593511	      3.01849294	    -19.56335513	      4.77501141	     -7.05647285	      0.00000000	     -3.07216023	      4.96914814	      2.58580224	    -51.24634828	     -8.98496902	      1.89567021	      0.00000000	    -20.64526683	     -1.18578841	    -17.09050691
      6.88000000	      1.88374243	      3.89039545	      7.77510048	     -0.55977115	      0.87349626	      0.19356026	     18.63333483	     -0.52649949	      2.71280204	    -20.14682396	      5.86096711	     -7.10471526	      0.00000000	     -0.73326258	      4.10609496	      2.21791954	    -55.35612666	    -12.02422047	     -0.26870525	      0.00000000	    -20.70202153	     -0.24482734	    -16.81342936
      6.89000000	      2.03074882	      3.14359742	      8.06715745	     -0.54811815	      0.87414373	      0.19386810	     17.83167518	      0.34202036	      2.27380092	    -20.40091367	      6.86164169	     -7.14263477	      0.00000000	      1.54701993	      3.27526990	      2.00651491	    -59.15090951	    -14.68746495	     -2.67004895	      0.00000000	    -20.86097401	      0.70622429	    -16.44541438
      6.90000000	      2.13841716	      2.46704843	      8.40741501	     -0.53662450	      0.87489760	      0.19396902	     16.91795086	      1.10943995	      1.83188861	    -20.36505933	      7.92277441	     -7.02221790	      0.00000000	      3.82378033	      2.60361200	      1.96382859	    -62.56496185	    -16.76348456	     -5.19933337	      0.00000000	    -20.97200861	      1.59786113	    -16.20569633
